<svg xmlns="http://www.w3.org/2000/svg" width="1440" height="900"><path d="M836,426L620,657L1018,734Z" fill="#5300b3" stroke="#5300b3" stroke-width="1.51"/><path d="M620,657L704,814L1018,734Z" fill="#5600b9" stroke="#5600b9" stroke-width="1.51"/><path d="M1018,734L1285,728L836,426Z" fill="#5900bc" stroke="#5900bc" stroke-width="1.51"/><path d="M1252,1123L1285,728L1018,734Z" fill="#6300d0" stroke="#6300d0" stroke-width="1.51"/><path d="M836,426L404,379L620,657Z" fill="#4c00a4" stroke="#4c00a4" stroke-width="1.51"/><path d="M191,1197L800,1153L704,814Z" fill="#5800bb" stroke="#5800bb" stroke-width="1.51"/><path d="M704,814L800,1153L1018,734Z" fill="#5d00c5" stroke="#5d00c5" stroke-width="1.51"/><path d="M139,1127L704,814L620,657Z" fill="#5500b6" stroke="#5500b6" stroke-width="1.51"/><path d="M404,379L35,584L620,657Z" fill="#48009e" stroke="#48009e" stroke-width="1.51"/><path d="M527,-234L290,291L404,379Z" fill="#3d0089" stroke="#3d0089" stroke-width="1.51"/><path d="M800,1153L1252,1123L1018,734Z" fill="#6000cc" stroke="#6000cc" stroke-width="1.51"/><path d="M800,1153L906,1279L1252,1123Z" fill="#6000cb" stroke="#6000cb" stroke-width="1.51"/><path d="M836,426L869,-13L404,379Z" fill="#46009a" stroke="#46009a" stroke-width="1.51"/><path d="M1417,295L869,-13L836,426Z" fill="#4c00a5" stroke="#4c00a5" stroke-width="1.51"/><path d="M1285,728L1417,295L836,426Z" fill="#5700b9" stroke="#5700b9" stroke-width="1.51"/><path d="M1615,390L1417,295L1285,728Z" fill="#5b00c2" stroke="#5b00c2" stroke-width="1.51"/><path d="M1252,1123L1603,836L1285,728Z" fill="#6800d9" stroke="#6800d9" stroke-width="1.51"/><path d="M906,1279L1239,1295L1252,1123Z" fill="#6300d0" stroke="#6300d0" stroke-width="1.51"/><path d="M290,291L35,584L404,379Z" fill="#430093" stroke="#430093" stroke-width="1.51"/><path d="M800,1153L432,1500L906,1279Z" fill="#5a00c0" stroke="#5a00c0" stroke-width="1.51"/><path d="M1778,1195L1603,836L1252,1123Z" fill="#6900dc" stroke="#6900dc" stroke-width="1.51"/><path d="M1603,836L1615,390L1285,728Z" fill="#6100cd" stroke="#6100cd" stroke-width="1.51"/><path d="M1417,295L1090,-161L869,-13Z" fill="#48009d" stroke="#48009d" stroke-width="1.51"/><path d="M1673,0L1090,-161L1417,295Z" fill="#4d00a7" stroke="#4d00a7" stroke-width="1.51"/><path d="M869,-13L527,-234L404,379Z" fill="#3e008a" stroke="#3e008a" stroke-width="1.51"/><path d="M-3,848L139,1127L620,657Z" fill="#5100ae" stroke="#5100ae" stroke-width="1.51"/><path d="M139,1127L191,1197L704,814Z" fill="#5400b3" stroke="#5400b3" stroke-width="1.51"/><path d="M35,584L-3,848L620,657Z" fill="#4b00a2" stroke="#4b00a2" stroke-width="1.51"/><path d="M1090,-161L527,-234L869,-13Z" fill="#410090" stroke="#410090" stroke-width="1.51"/><path d="M290,291L-183,394L35,584Z" fill="#3f008c" stroke="#3f008c" stroke-width="1.51"/><path d="M1778,1195L1765,719L1603,836Z" fill="#6900dc" stroke="#6900dc" stroke-width="1.51"/><path d="M1603,836L1765,719L1615,390Z" fill="#6100cc" stroke="#6100cc" stroke-width="1.51"/><path d="M906,1279L432,1500L1239,1295Z" fill="#5d00c6" stroke="#5d00c6" stroke-width="1.51"/><path d="M191,1197L432,1500L800,1153Z" fill="#5600b7" stroke="#5600b7" stroke-width="1.51"/><path d="M35,584L-289,755L-3,848Z" fill="#47009c" stroke="#47009c" stroke-width="1.51"/><path d="M150,-158L-183,394L290,291Z" fill="#38007f" stroke="#38007f" stroke-width="1.51"/><path d="M527,-234L150,-158L290,291Z" fill="#38007e" stroke="#38007e" stroke-width="1.51"/><path d="M1765,719L1865,446L1615,390Z" fill="#5d00c5" stroke="#5d00c5" stroke-width="1.51"/><path d="M1615,390L1673,0L1417,295Z" fill="#5400b3" stroke="#5400b3" stroke-width="1.51"/><path d="M1865,446L1673,0L1615,390Z" fill="#5500b6" stroke="#5500b6" stroke-width="1.51"/><path d="M1239,1295L1778,1195L1252,1123Z" fill="#6900db" stroke="#6900db" stroke-width="1.51"/><path d="M1765,719L2084,655L1865,446Z" fill="#5f00ca" stroke="#5f00ca" stroke-width="1.51"/><path d="M1999,1197L1778,1195L1239,1295Z" fill="#6900dc" stroke="#6900dc" stroke-width="1.51"/><path d="M191,1197L-214,1389L432,1500Z" fill="#4f00ab" stroke="#4f00ab" stroke-width="1.51"/><path d="M139,1127L-214,1389L191,1197Z" fill="#4d00a8" stroke="#4d00a8" stroke-width="1.51"/><path d="M-3,848L-214,1389L139,1127Z" fill="#4d00a6" stroke="#4d00a6" stroke-width="1.51"/><path d="M-183,394L-289,755L35,584Z" fill="#430093" stroke="#430093" stroke-width="1.51"/><path d="M527,-234L440,-455L150,-158Z" fill="#390080" stroke="#390080" stroke-width="1.51"/><path d="M1062,-609L440,-455L527,-234Z" fill="#3e008b" stroke="#3e008b" stroke-width="1.51"/><path d="M1062,-609L527,-234L1090,-161Z" fill="#420092" stroke="#420092" stroke-width="1.51"/><path d="M-289,755L-214,1389L-3,848Z" fill="#4d00a6" stroke="#4d00a6" stroke-width="1.51"/><path d="M-565,375L-403,791L-289,755Z" fill="#450097" stroke="#450097" stroke-width="1.51"/><path d="M1673,0L1600,-343L1090,-161Z" fill="#4d00a6" stroke="#4d00a6" stroke-width="1.51"/><path d="M2048,-247L1600,-343L1673,0Z" fill="#4d00a6" stroke="#4d00a6" stroke-width="1.51"/><path d="M1600,-343L1389,-483L1090,-161Z" fill="#4b00a3" stroke="#4b00a3" stroke-width="1.51"/><path d="M1865,446L2048,-247L1673,0Z" fill="#4f00aa" stroke="#4f00aa" stroke-width="1.51"/><path d="M2096,1121L2084,655L1765,719Z" fill="#6700d8" stroke="#6700d8" stroke-width="1.51"/><path d="M1389,-483L1062,-609L1090,-161Z" fill="#48009c" stroke="#48009c" stroke-width="1.51"/><path d="M-403,791L-214,1389L-289,755Z" fill="#4d00a6" stroke="#4d00a6" stroke-width="1.51"/><path d="M1778,1195L2096,1121L1765,719Z" fill="#6900dc" stroke="#6900dc" stroke-width="1.51"/><path d="M432,1500L1999,1197L1239,1295Z" fill="#6400d3" stroke="#6400d3" stroke-width="1.51"/><path d="M-183,394L-565,375L-289,755Z" fill="#41008f" stroke="#41008f" stroke-width="1.51"/><path d="M150,-158L-352,48L-183,394Z" fill="#340078" stroke="#340078" stroke-width="1.51"/><path d="M-517,-125L-352,48L150,-158Z" fill="#320073" stroke="#320073" stroke-width="1.51"/><path d="M440,-455L141,-521L150,-158Z" fill="#36007b" stroke="#36007b" stroke-width="1.51"/><path d="M1062,-609L141,-521L440,-455Z" fill="#3c0086" stroke="#3c0086" stroke-width="1.51"/><path d="M1999,1197L2096,1121L1778,1195Z" fill="#6900dc" stroke="#6900dc" stroke-width="1.51"/><path d="M-352,48L-565,375L-183,394Z" fill="#3a0082" stroke="#3a0082" stroke-width="1.51"/><path d="M-403,791L-633,1093L-214,1389Z" fill="#4d00a6" stroke="#4d00a6" stroke-width="1.51"/><path d="M2148,-282L2048,-247L1865,446Z" fill="#4d00a6" stroke="#4d00a6" stroke-width="1.51"/><path d="M1600,-343L2148,-282L1389,-483Z" fill="#4d00a6" stroke="#4d00a6" stroke-width="1.51"/><path d="M1389,-483L2148,-282L1062,-609Z" fill="#4d00a6" stroke="#4d00a6" stroke-width="1.51"/><path d="M-565,375L-633,1093L-403,791Z" fill="#48009d" stroke="#48009d" stroke-width="1.51"/><path d="M-80,-630L-517,-125L150,-158Z" fill="#320073" stroke="#320073" stroke-width="1.51"/><path d="M-352,48L-517,-125L-565,375Z" fill="#350078" stroke="#350078" stroke-width="1.51"/><path d="M141,-521L-80,-630L150,-158Z" fill="#330075" stroke="#330075" stroke-width="1.51"/><path d="M1062,-609L-80,-630L141,-521Z" fill="#390080" stroke="#390080" stroke-width="1.51"/><path d="M-633,1093L-545,1404L-214,1389Z" fill="#4d00a6" stroke="#4d00a6" stroke-width="1.51"/><path d="M-214,1389L-545,1404L432,1500Z" fill="#4d00a6" stroke="#4d00a6" stroke-width="1.51"/><path d="M2096,1121L2148,-282L2084,655Z" fill="#5c00c4" stroke="#5c00c4" stroke-width="1.51"/><path d="M2084,655L2148,-282L1865,446Z" fill="#5500b6" stroke="#5500b6" stroke-width="1.51"/><path d="M2048,-247L2148,-282L1600,-343Z" fill="#4d00a6" stroke="#4d00a6" stroke-width="1.51"/><path d="M-517,-125L-603,-554L-565,375Z" fill="#320073" stroke="#320073" stroke-width="1.51"/><path d="M-565,375L-603,-554L-633,1093Z" fill="#3b0084" stroke="#3b0084" stroke-width="1.51"/><path d="M-80,-630L-603,-554L-517,-125Z" fill="#320073" stroke="#320073" stroke-width="1.51"/></svg>
